trial_1_IK.mot
nRows=10
nColumns=42

name trial_1_IK.mot
datacolumns 42
datarows 10
range 2.6900000000 2.7800000000
endheader
time	pelvis_tilt	pelvis_list	pelvis_rotation	pelvis_tx	pelvis_ty	pelvis_tz	hip_flexion_r	hip_adduction_r	hip_rotation_r	knee_angle_r	knee_vv_r	knee_rot_r	ankle_angle_r	subtalar_angle_r	mtp_angle_r	hip_flexion_l	hip_adduction_l	hip_rotation_l	knee_angle_l	knee_vv_l	knee_rot_l	ankle_angle_l	subtalar_angle_l	mtp_angle_l	lumbar_extension	lumbar_bending	lumbar_rotation	arm_flex_r	arm_add_r	arm_rot_r	elbow_flex_r	pro_sup_r	wrist_flex_r	wrist_dev_r	arm_flex_l	arm_add_l	arm_rot_l	elbow_flex_l	pro_sup_l	wrist_flex_l	wrist_dev_l
        2.6900000000	       10.0199071300	        4.7324681000	       -5.6549792700	        0.0646573800	        0.9160707700	       -0.0264744400	        9.1632018200	       -7.0518733300	        2.7464787300	      -61.8497918000	        0.0000000000	        0.0000000000	       -4.9443093300	        0.0000000000	        0.0000000000	       -4.7644890700	       10.1900540200	       -5.0426913400	       -5.9881228100	        0.0000000000	        0.0000000000	        0.7163088400	        0.0000000000	        0.0000000000	      -23.2341943300	       -5.4160959600	        0.2999178100	        3.8190922800	      -11.9516973100	       46.5130999700	        5.1806094100	       86.5166270600	        0.0000000000	        0.0000000000	       20.4759798700	      -17.9215489300	       34.1838150200	       17.4952562500	       85.9436692700	        0.0000000000	        0.0000000000	
        2.7000000000	        9.7344580400	        4.5371629000	       -5.3996583800	        0.0637017500	        0.9164372700	       -0.0275543500	       10.4599094700	       -6.8732007100	        2.0524897300	      -61.1907741800	        0.0000000000	        0.0000000000	       -2.5262906800	        0.0000000000	        0.0000000000	       -5.2646806900	       10.0572552200	       -4.8809924800	       -5.5060539700	        0.0000000000	        0.0000000000	        0.8824958400	        0.0000000000	        0.0000000000	      -23.0052490700	       -4.9735343800	       -0.1097840100	        3.0046769500	      -12.0176976800	       46.6656910200	        5.0664528000	       86.5166270600	        0.0000000000	        0.0000000000	       20.9914372100	      -18.2772976400	       33.1136531100	       18.5489323700	       85.9436692700	        0.0000000000	        0.0000000000	
        2.7100000000	        9.4557205100	        4.3246885500	       -5.1546655900	        0.0627438400	        0.9167333400	       -0.0285337300	       11.6608067400	       -6.6858964900	        1.3297555800	      -60.2403424600	        0.0000000000	        0.0000000000	       -0.4093533600	        0.0000000000	        0.0000000000	       -5.7644664700	        9.8963761500	       -4.7720589600	       -5.0362304900	        0.0000000000	        0.0000000000	        1.0600314500	        0.0000000000	        0.0000000000	      -22.7754040700	       -4.5256115900	       -0.4927470300	        2.2014765300	      -12.0939390000	       46.7071631900	        4.9732004800	       86.5166270600	        0.0000000000	        0.0000000000	       21.4430086600	      -18.6101475200	       31.9762021700	       19.6317777900	       85.9436692700	        0.0000000000	        0.0000000000	
        2.7200000000	        9.1970097600	        4.0989930100	       -4.9223399900	        0.0618119700	        0.9169597100	       -0.0294192000	       12.7395349400	       -6.4894333700	        0.5876743600	      -59.0017705300	        0.0000000000	        0.0000000000	        1.3993489400	        0.0000000000	        0.0000000000	       -6.2760811400	        9.7107633100	       -4.7082003500	       -4.5888006500	        0.0000000000	        0.0000000000	        1.2552883100	        0.0000000000	        0.0000000000	      -22.5615228500	       -4.0775372800	       -0.8556172600	        1.4179981700	      -12.1749033100	       46.6331539000	        4.8954595700	       86.5166270600	        0.0000000000	        0.0000000000	       21.8323214200	      -18.9278423800	       30.7878840800	       20.7405458900	       85.9436692700	        0.0000000000	        0.0000000000	
        2.7300000000	        8.9665781700	        3.8686411300	       -4.6986450600	        0.0609397200	        0.9171238900	       -0.0302195700	       13.6779872100	       -6.2873089600	       -0.1688615400	      -57.4778241800	        0.0000000000	        0.0000000000	        2.9062180500	        0.0000000000	        0.0000000000	       -6.8038118600	        9.5094673500	       -4.6734987600	       -4.1765594600	        0.0000000000	        0.0000000000	        1.4754330000	        0.0000000000	        0.0000000000	      -22.3736365100	       -3.6368199500	       -1.2095882700	        0.6590512100	      -12.2552069900	       46.4422410700	        4.8295660800	       86.5166270600	        0.0000000000	        0.0000000000	       22.1661862800	      -19.2360599400	       29.5740386900	       21.8680083300	       85.9436692700	        0.0000000000	        0.0000000000	
        2.7400000000	        8.7685028700	        3.6447497500	       -4.4726948600	        0.0601295300	        0.9172303800	       -0.0309330400	       14.4687089500	       -6.0857256200	       -0.9365940500	      -55.6726186600	        0.0000000000	        0.0000000000	        4.1227390500	        0.0000000000	        0.0000000000	       -7.3423563600	        9.3054395400	       -4.6467856700	       -3.8113401400	        0.0000000000	        0.0000000000	        1.7283956500	        0.0000000000	        0.0000000000	      -22.2157795900	       -3.2133986100	       -1.5664458500	       -0.0732996200	      -12.3290245300	       46.1369761300	        4.7733530700	       86.5166270600	        0.0000000000	        0.0000000000	       22.4544323200	      -19.5366298700	       28.3662981300	       23.0033691100	       85.9436692700	        0.0000000000	        0.0000000000	
        2.7500000000	        8.6021333700	        3.4384001900	       -4.2304879600	        0.0593463300	        0.9172586000	       -0.0315694300	       15.1148047500	       -5.8914430300	       -1.7093714000	      -53.5945402000	        0.0000000000	        0.0000000000	        5.0612274400	        0.0000000000	        0.0000000000	       -7.8802122300	        9.1112420000	       -4.6051257700	       -3.5023298000	        0.0000000000	        0.0000000000	        2.0218923200	        0.0000000000	        0.0000000000	      -22.0876841500	       -2.8184609600	       -1.9345203400	       -0.7782536800	      -12.3905428700	       45.7245399000	        4.7255024500	       86.5166270600	        0.0000000000	        0.0000000000	       22.7078144300	      -19.8285243100	       27.1989897400	       24.1326894600	       85.9436692700	        0.0000000000	        0.0000000000	
        2.7600000000	        8.4620192200	        3.2580476900	       -3.9619443700	        0.0585726800	        0.9171691200	       -0.0321512700	       15.6269427600	       -5.7089620800	       -2.4735729300	      -51.2587508900	        0.0000000000	        0.0000000000	        5.7342652500	        0.0000000000	        0.0000000000	       -8.4052913600	        8.9347497500	       -4.5275952900	       -3.2562096600	        0.0000000000	        0.0000000000	        2.3619617300	        0.0000000000	        0.0000000000	      -21.9857553400	       -2.4621711600	       -2.3161606300	       -1.4555020500	      -12.4347912100	       45.2171398900	        4.6846251900	       86.5166270600	        0.0000000000	        0.0000000000	       22.9369162000	      -20.1098155500	       26.1053193700	       25.2399603300	       85.9436692700	        0.0000000000	        0.0000000000	
        2.7700000000	        8.3396600400	        3.1077839600	       -3.6661531900	        0.0578346700	        0.9169458300	       -0.0326789700	       16.0190989800	       -5.5374684400	       -3.2050326900	      -48.6873014300	        0.0000000000	        0.0000000000	        6.1567516700	        0.0000000000	        0.0000000000	       -8.9095651800	        8.7773068800	       -4.3988285700	       -3.0781960700	        0.0000000000	        0.0000000000	        2.7516341600	        0.0000000000	        0.0000000000	      -21.9034534800	       -2.1506761100	       -2.7071640900	       -2.1052050800	      -12.4579072000	       44.6320763400	        4.6485176000	       86.5166270600	        0.0000000000	        0.0000000000	       23.1518459100	      -20.3786650900	       25.1139037600	       26.3089926800	       85.9436692700	        0.0000000000	        0.0000000000	
        2.7800000000	        8.2265124400	        2.9864452500	       -3.3510245600	        0.0571522100	        0.9166059200	       -0.0331253500	       16.3044806900	       -5.3687158700	       -3.8681315000	      -45.9059665700	        0.0000000000	        0.0000000000	        6.3490720700	        0.0000000000	        0.0000000000	       -9.3899127500	        8.6346905900	       -4.2112084000	       -2.9722640900	        0.0000000000	        0.0000000000	        3.1902019900	        0.0000000000	        0.0000000000	      -21.8328145700	       -1.8843379800	       -3.0978986600	       -2.7277095600	      -12.4570946000	       43.9911160000	        4.6138398900	       86.5166270600	        0.0000000000	        0.0000000000	       23.3616052300	      -20.6331570200	       24.2461642500	       27.3254428900	       85.9436692700	        0.0000000000	        0.0000000000	
